# Blender v2.93.0 OBJ File: 'VrControllerblend.blend'
# www.blender.org
mtllib VrController.mtl
o Cylinder.001_Cylinder.002
v 0.187532 0.941769 -0.227879
v 0.211816 0.592156 -0.234778
v 0.265300 0.793086 -0.106292
v 0.146537 0.499319 -0.217587
v 0.187598 0.644679 0.008484
v 0.263316 0.757197 -0.241274
v 0.288447 0.770894 -0.140554
v 0.203963 0.609599 -0.015715
v 0.266335 0.713338 -0.244645
v 0.081095 0.644803 -0.396650
v 0.093178 0.608850 -0.331178
v 0.088964 0.699015 -0.318707
v 0.063757 0.661788 -0.369892
v 0.068250 0.844940 -0.307472
v 0.078245 0.777901 -0.294937
v 0.068250 0.710863 -0.307472
v 0.039404 0.661788 -0.341318
v 0.088247 0.777901 -0.309035
v 0.088551 0.767084 -0.312106
v 0.087071 0.781765 -0.309084
v 0.086649 0.710863 -0.329061
v 0.085862 0.699007 -0.344490
v 0.084018 0.683091 -0.364280
v 0.013999 0.894015 -0.334281
v 0.043975 0.872032 -0.323843
v 0.073326 0.844940 -0.313428
v 0.059080 0.860541 -0.318232
v 0.011195 0.644111 -0.400687
v 0.089672 0.753238 -0.316945
v 0.085686 0.734911 -0.319042
v 0.079121 0.673124 -0.406427
v 0.047699 0.658835 -0.400764
v 0.063757 0.664934 -0.401210
v -0.000000 0.974128 -0.316384
v -0.187532 0.941769 -0.227879
v -0.211816 0.592156 -0.245417
v -0.265300 0.793086 -0.106292
v -0.187598 0.644679 0.008484
v 0.000000 0.565793 0.071496
v -0.263316 0.757197 -0.241274
v -0.288447 0.770894 -0.140554
v 0.000000 0.590040 -0.381707
v 0.000000 0.476630 -0.240111
v -0.266335 0.713338 -0.244645
v -0.081095 0.644803 -0.396650
v -0.093178 0.608850 -0.331178
v 0.000000 0.537570 -0.312472
v -0.088964 0.699015 -0.318707
v -0.063757 0.661788 -0.369892
v -0.068250 0.844940 -0.307472
v -0.078245 0.777901 -0.294937
v -0.068250 0.710863 -0.307472
v -0.039404 0.661788 -0.341318
v 0.000000 0.894015 -0.330403
v 0.000000 0.844940 -0.288567
v 0.000000 0.777901 -0.273254
v 0.000000 0.710863 -0.288567
v 0.000000 0.661788 -0.330403
v 0.000000 0.645515 -0.387552
v -0.088247 0.777901 -0.309035
v -0.088551 0.767084 -0.312106
v -0.087071 0.781765 -0.309084
v -0.086649 0.710863 -0.329061
v -0.085862 0.699007 -0.344490
v -0.084018 0.683091 -0.364280
v -0.013999 0.894015 -0.334281
v -0.043975 0.872032 -0.323843
v 0.000000 0.896978 -0.339872
v 0.000000 0.896971 -0.339808
v -0.073326 0.844940 -0.313428
v -0.059080 0.860541 -0.318232
v -0.088944 0.764833 -0.312967
v 0.000000 0.643364 -0.401412
v -0.011195 0.644111 -0.400687
v -0.089672 0.753238 -0.316945
v -0.085686 0.734911 -0.319042
v -0.079121 0.673124 -0.406427
v -0.047699 0.658835 -0.400764
v -0.063757 0.664934 -0.401210
v 0.000000 0.991175 -0.332613
v 0.203963 0.955195 -0.237607
v 0.288447 0.793900 -0.105052
v 0.203963 0.632604 0.019786
v -0.000000 0.583329 0.056152
v -0.203963 0.955195 -0.237607
v -0.288447 0.793900 -0.105052
v -0.203963 0.632604 0.019786
v -0.165520 0.526317 -0.229089
v -0.109313 0.493556 -0.223308
v -0.203963 0.630317 0.016257
v -0.218543 0.637434 -0.037259
v 0.006996 0.472424 -0.229123
v 0.044270 0.455792 -0.222803
v 0.035448 0.558250 0.026346
v 0.000000 0.564632 0.069198
v -0.046558 -0.030909 -0.024641
v 0.005403 0.020341 -0.001904
v -0.009586 -0.016374 -0.008523
v -0.050080 -0.030921 -0.021404
v -0.032210 0.020233 0.032227
v -0.037247 -0.016458 0.016773
v -0.053453 -0.027303 -0.185347
v -0.034082 0.025451 -0.216862
v -0.039553 -0.011688 -0.202518
v -0.047453 -0.027584 -0.180311
v 0.004231 0.023637 -0.200675
v -0.010697 -0.013046 -0.195668
v -0.116184 -0.026826 -0.146543
v -0.162038 0.027905 -0.176704
v -0.148834 -0.009804 -0.167673
v -0.095443 -0.026888 -0.183427
v -0.114433 0.027770 -0.214614
v -0.109129 -0.009921 -0.199738
v -0.145223 -0.028892 -0.030054
v -0.173538 0.022401 0.017678
v -0.165491 -0.014313 0.004607
v -0.145849 -0.028858 -0.030946
v -0.201825 0.023952 -0.023191
v -0.185738 -0.013212 -0.024380
v 0.002702 0.275473 0.010491
v -0.034648 0.289491 0.041962
v 0.002116 0.242199 -0.212089
v -0.170271 0.310369 0.018473
v -0.036071 0.238315 -0.230586
v -0.111728 0.254993 -0.234428
v -0.159468 0.273561 -0.199991
v -0.197813 0.307018 -0.024434
v -0.059508 0.372240 -0.216376
v -0.109446 0.468173 -0.220887
v -0.110096 0.392111 -0.220968
v -0.157890 0.424412 -0.188429
v -0.160899 0.489763 -0.207197
v -0.202954 0.563896 -0.044414
v -0.195235 0.488936 -0.046390
v -0.168163 0.496210 -0.002205
v -0.181383 0.569125 0.003803
v 0.018458 0.430326 -0.205227
v 0.000849 0.373025 -0.193711
v -0.037256 0.365026 -0.213685
v -0.021103 0.430971 -0.217670
v -0.021332 0.525075 0.044354
v -0.036200 0.460883 0.027081
v 0.001001 0.436091 -0.002693
v 0.013835 0.504728 0.008283
v -0.094876 0.813515 -0.179790
v -0.098920 0.792624 -0.195723
v -0.109968 0.768858 -0.200167
v -0.076220 0.793971 -0.163136
v -0.082764 0.775699 -0.181300
v -0.100641 0.759086 -0.191840
v -0.076220 0.769814 -0.142550
v -0.082764 0.754778 -0.163473
v -0.100641 0.747007 -0.181547
v -0.094876 0.750270 -0.125896
v -0.098920 0.737853 -0.149050
v -0.109968 0.737236 -0.173220
v -0.125061 0.742805 -0.119535
v -0.125061 0.731388 -0.143541
v -0.125061 0.733503 -0.170039
v -0.155246 0.750270 -0.125896
v -0.151202 0.737853 -0.149050
v -0.140153 0.737236 -0.173220
v -0.173901 0.769814 -0.142550
v -0.167358 0.754778 -0.163473
v -0.149481 0.747007 -0.181547
v -0.173901 0.793971 -0.163136
v -0.167358 0.775699 -0.181300
v -0.149481 0.759086 -0.191840
v -0.155246 0.813514 -0.179790
v -0.151202 0.792624 -0.195723
v -0.140153 0.768858 -0.200167
v -0.125061 0.820979 -0.186151
v -0.125061 0.799089 -0.201232
v -0.125061 0.772590 -0.203348
v 0.379456 0.885079 0.014458
v 0.342197 0.996225 0.012797
v 0.328774 1.003254 0.012362
v 0.326248 0.950062 0.012520
v 0.341828 0.820097 0.014773
v 0.350528 0.766905 0.014794
v 0.364840 0.773933 0.014794
v 0.268317 0.885079 -0.256381
v 0.241970 0.996225 -0.243187
v 0.232478 1.003254 -0.233067
v 0.230691 0.950062 -0.226915
v 0.241709 0.820097 -0.226915
v 0.247861 0.766905 -0.233067
v 0.257981 0.773933 -0.243187
v 0.268465 0.885079 0.265388
v 0.241970 0.996225 0.244422
v 0.232478 1.003254 0.234303
v 0.230616 0.950062 0.230041
v 0.241709 0.820097 0.244140
v 0.247861 0.766905 0.256604
v 0.257981 0.773933 0.265894
v 0.036727 0.894015 -0.341318
v 0.068250 0.844940 -0.307472
v 0.054390 0.844940 -0.303633
v 0.063862 0.820097 -0.300582
v 0.075354 0.799832 -0.299136
v 0.043213 0.894015 -0.348240
v 0.051898 0.885079 -0.346105
v 0.050069 0.848304 -0.305304
v 0.080758 0.766905 -0.302062
v 0.081653 0.777901 -0.299672
v 0.090141 0.773933 -0.311962
v 0.091196 0.777901 -0.312072
v 0.082678 0.844940 -0.326854
v -0.379456 0.885079 0.014458
v -0.342197 0.996225 0.012797
v -0.328774 1.003254 0.012362
v -0.326248 0.950062 0.012520
v -0.341828 0.820097 0.014773
v -0.350528 0.766905 0.014794
v -0.364840 0.773933 0.014794
v -0.268317 0.885079 -0.256381
v -0.241970 0.996225 -0.243187
v -0.232478 1.003254 -0.233067
v -0.230691 0.950062 -0.226915
v -0.241709 0.820097 -0.226915
v -0.247861 0.766905 -0.233067
v -0.257981 0.773933 -0.243187
v 0.000000 0.996225 -0.350046
v 0.000000 1.003254 -0.335735
v 0.000000 0.950062 -0.327034
v 0.000000 0.885079 0.377712
v 0.000000 0.996225 0.351281
v 0.000000 1.003254 0.336970
v 0.000000 0.950062 0.330160
v 0.000000 0.820097 0.344259
v 0.000000 0.766905 0.359272
v 0.000000 0.773933 0.372753
v -0.268465 0.885079 0.265388
v -0.241970 0.996225 0.244422
v -0.232478 1.003254 0.234303
v -0.230616 0.950062 0.230041
v -0.241709 0.820097 0.244140
v -0.247861 0.766905 0.256604
v -0.257981 0.773933 0.265894
v -0.036727 0.894015 -0.341318
v -0.068250 0.844940 -0.307472
v 0.000000 0.894015 -0.330403
v -0.054390 0.844940 -0.303633
v -0.063862 0.820097 -0.300582
v 0.000000 0.894015 -0.367205
v -0.075354 0.799832 -0.299136
v -0.043213 0.894015 -0.348240
v -0.051898 0.885079 -0.346105
v -0.050069 0.848304 -0.305304
v 0.000000 0.890063 -0.327034
v 0.000000 0.890063 -0.327034
v -0.080758 0.766905 -0.302062
v -0.081653 0.777901 -0.299672
v -0.090141 0.773933 -0.311962
v -0.091196 0.777901 -0.312072
v -0.082678 0.844940 -0.326854
v -0.076062 0.670874 -0.411521
v -0.071731 0.761001 -0.394002
v 0.075286 0.670874 -0.411521
v 0.070955 0.761001 -0.394002
v -0.081758 0.650426 -0.337717
v -0.062856 0.877948 -0.337717
v -0.074556 0.720786 -0.427694
v -0.000388 0.656541 -0.427694
v -0.000388 0.774043 -0.401820
v 0.073779 0.720786 -0.427694
v 0.080982 0.650426 -0.337717
v 0.062080 0.877948 -0.337717
v -0.090479 0.764187 -0.337717
v -0.000388 0.720786 -0.461635
v 0.089703 0.764187 -0.337717
v -0.000388 0.613629 -0.337717
v -0.000388 0.920860 -0.337717
v -0.073143 0.740893 -0.410848
v 0.072367 0.740893 -0.410848
v -0.084007 0.821068 -0.337717
v -0.000388 0.747414 -0.431727
v 0.084297 0.821068 -0.337717
v -0.073853 0.660650 -0.300815
v -0.079059 0.867724 -0.300815
v 0.073077 0.660650 -0.300815
v 0.066518 0.867724 -0.300815
v -0.094283 0.764187 -0.292728
v 0.081741 0.764187 -0.292728
v -0.000388 0.632028 -0.292728
v -0.000388 0.899404 -0.292728
v 0.081895 0.815956 -0.296772
v -0.094437 0.815956 -0.296772
v -0.023873 0.319671 -0.060225
v -0.023873 0.423285 -0.060225
v -0.049049 0.321651 -0.190680
v -0.038589 0.424735 -0.190680
v 0.001266 0.385976 -0.190680
v -0.002221 0.351614 -0.190680
v 0.057708 0.388747 -0.060225
v 0.057708 0.354209 -0.060225
v -0.034473 0.361325 -0.021017
v -0.034473 0.381631 -0.021017
v -0.008466 0.319671 -0.113635
v -0.008466 0.423285 -0.113635
v 0.053110 0.354209 -0.113635
v 0.053110 0.388747 -0.113635
v 0.049300 0.319671 -0.060225
v 0.057708 0.327865 -0.060225
v 0.049299 0.423285 -0.060225
v 0.057708 0.415095 -0.060225
v -0.004510 0.329063 -0.190680
v -0.013796 0.321086 -0.190680
v -0.003723 0.421197 -0.190680
v 0.003930 0.412229 -0.190680
v 0.053110 0.327835 -0.113635
v 0.044650 0.319671 -0.113635
v 0.053110 0.415125 -0.113635
v 0.044648 0.423285 -0.113635
v -0.031165 0.334358 -0.033252
v -0.034473 0.355111 -0.021017
v -0.034473 0.387845 -0.021017
v -0.031165 0.408598 -0.033252
v 0.053692 0.383874 -0.033378
v 0.037752 0.381631 -0.021017
v 0.037752 0.361325 -0.021017
v 0.053692 0.359082 -0.033378
v 0.037752 0.387797 -0.021017
v 0.053684 0.400430 -0.033324
v 0.037702 0.387845 -0.021017
v 0.045279 0.408609 -0.033272
v 0.037700 0.355111 -0.021017
v 0.045280 0.334347 -0.033272
v 0.037752 0.355161 -0.021017
v 0.053684 0.342530 -0.033324
v -0.008052 0.424010 -0.152157
v -0.013282 0.320661 -0.152157
v 0.040920 0.352912 -0.152157
v 0.042663 0.387361 -0.152157
v 0.030902 0.320379 -0.152157
v 0.039775 0.328449 -0.152157
v 0.035938 0.422241 -0.152157
v 0.043995 0.413677 -0.152157
v -0.113935 0.815448 -0.127666
v -0.100220 0.819092 -0.167201
v -0.099682 0.806675 -0.190700
v -0.106062 0.785784 -0.205849
v -0.117651 0.762018 -0.208592
v -0.109308 0.811129 -0.124643
v -0.082089 0.802167 -0.155356
v -0.078747 0.787131 -0.177021
v -0.087932 0.768859 -0.194004
v -0.107183 0.752246 -0.201752
v -0.108628 0.805790 -0.120145
v -0.079424 0.781246 -0.137728
v -0.075670 0.762974 -0.156667
v -0.085267 0.747938 -0.176376
v -0.105645 0.740168 -0.191575
v -0.112154 0.801471 -0.115890
v -0.093243 0.764321 -0.121053
v -0.091626 0.743430 -0.137411
v -0.099086 0.731013 -0.159701
v -0.113623 0.730396 -0.181948
v -0.118540 0.799822 -0.113503
v -0.118267 0.757856 -0.111698
v -0.120521 0.735966 -0.126610
v -0.124109 0.724548 -0.150346
v -0.128070 0.726663 -0.176547
v -0.125346 0.801471 -0.113896
v -0.144938 0.764321 -0.113238
v -0.151318 0.743430 -0.128388
v -0.150780 0.731013 -0.151886
v -0.143469 0.730396 -0.177436
v -0.129972 0.805790 -0.116919
v -0.163068 0.781246 -0.125084
v -0.172253 0.762974 -0.142066
v -0.168911 0.747938 -0.163732
v -0.153936 0.740168 -0.184275
v -0.130652 0.811129 -0.121417
v -0.165733 0.802167 -0.142711
v -0.175330 0.787131 -0.162420
v -0.171575 0.768859 -0.181359
v -0.155475 0.752246 -0.194452
v -0.127126 0.815448 -0.125672
v -0.151914 0.819092 -0.159387
v -0.159374 0.806675 -0.181676
v -0.157757 0.785784 -0.198035
v -0.147497 0.762018 -0.204080
v -0.120740 0.817097 -0.128059
v -0.126890 0.825557 -0.168741
v -0.130479 0.814140 -0.192477
v -0.132733 0.792249 -0.207389
v -0.133049 0.765751 -0.209481
v -0.107531 0.819709 -0.141651
v -0.097064 0.809937 -0.134812
v -0.095525 0.797859 -0.124635
v -0.103503 0.788087 -0.115007
v -0.117951 0.784355 -0.109607
v -0.133349 0.788087 -0.110496
v -0.143817 0.797859 -0.117335
v -0.145355 0.809937 -0.127512
v -0.137377 0.819709 -0.137140
v -0.122930 0.823442 -0.142540
v -0.110557 0.818097 -0.134341
v -0.102922 0.810970 -0.129353
v -0.101800 0.802160 -0.121930
v -0.107619 0.795033 -0.114908
v -0.118157 0.792310 -0.110969
v -0.129388 0.795033 -0.111617
v -0.137023 0.802160 -0.116606
v -0.138145 0.810970 -0.124028
v -0.132326 0.818097 -0.131051
v -0.121788 0.820819 -0.134990
v -0.112316 0.824673 -0.116961
v -0.107690 0.820355 -0.113938
v -0.107010 0.815016 -0.109440
v -0.110536 0.810697 -0.105185
v -0.116922 0.809047 -0.102798
v -0.123727 0.810697 -0.103191
v -0.128354 0.815016 -0.106214
v -0.129034 0.820355 -0.110712
v -0.125508 0.824673 -0.114967
v -0.119122 0.826323 -0.117354
v -0.092451 0.851048 -0.137363
v -0.072086 0.832037 -0.124058
v -0.069093 0.808538 -0.104258
v -0.084615 0.789527 -0.085528
v -0.112722 0.782266 -0.075020
v -0.142680 0.789528 -0.076750
v -0.163044 0.808538 -0.090055
v -0.166037 0.832037 -0.109855
v -0.150516 0.851048 -0.128585
v -0.122408 0.858309 -0.139093
v -0.098253 0.848174 -0.122965
v -0.083360 0.834271 -0.113234
v -0.081171 0.817086 -0.098755
v -0.092522 0.803184 -0.085057
v -0.113078 0.797873 -0.077372
v -0.134986 0.803184 -0.078637
v -0.149879 0.817086 -0.088368
v -0.152068 0.834271 -0.102847
v -0.140717 0.848174 -0.116545
v -0.120161 0.853485 -0.124229
v -0.091982 0.855855 -0.130532
v -0.072004 0.837205 -0.117479
v -0.069068 0.814153 -0.098056
v -0.084295 0.795503 -0.079681
v -0.111869 0.788379 -0.069373
v -0.141257 0.795503 -0.071070
v -0.161235 0.814153 -0.084123
v -0.164171 0.837205 -0.103546
v -0.148944 0.855855 -0.121921
v -0.121371 0.862978 -0.132229
v -0.101841 0.842381 -0.121080
v -0.089603 0.830957 -0.113085
v -0.087805 0.816837 -0.101187
v -0.097132 0.805413 -0.089932
v -0.114022 0.801049 -0.083618
v -0.132024 0.805413 -0.084657
v -0.144261 0.816837 -0.092652
v -0.146060 0.830957 -0.104550
v -0.136733 0.842381 -0.115806
v -0.119842 0.846745 -0.122120
v 0.043486 0.848551 -0.185214
v 0.066600 0.841144 -0.172175
v 0.072951 0.822629 -0.152783
v 0.058819 0.803853 -0.138398
v 0.032481 0.795814 -0.137448
v 0.009367 0.803222 -0.150487
v 0.003016 0.821737 -0.169879
v 0.017148 0.840513 -0.184264
v 0.039269 0.858720 -0.168494
v 0.040487 0.859756 -0.173534
v 0.059629 0.852195 -0.157008
v 0.063602 0.852349 -0.160494
v 0.065223 0.835886 -0.139926
v 0.069953 0.833834 -0.141103
v 0.052775 0.819347 -0.127256
v 0.055820 0.815058 -0.126718
v 0.029575 0.812266 -0.126418
v 0.029483 0.807019 -0.125767
v 0.009215 0.818791 -0.137904
v 0.006369 0.814427 -0.138807
v 0.003620 0.835100 -0.154986
v 0.000018 0.832941 -0.158199
v 0.016069 0.851639 -0.167657
v 0.014150 0.851718 -0.172583
v -0.003814 0.774091 -0.129339
v 0.021291 0.766650 -0.120765
v 0.031047 0.748500 -0.102474
v 0.019739 0.730273 -0.085180
v -0.006010 0.722646 -0.079015
v -0.031116 0.730087 -0.087589
v -0.040872 0.748238 -0.105880
v -0.029563 0.766464 -0.123174
v -0.004656 0.784707 -0.112388
v -0.004412 0.785607 -0.117593
v 0.017459 0.778152 -0.104835
v 0.020693 0.778166 -0.109019
v 0.026052 0.762164 -0.088723
v 0.030449 0.760016 -0.090727
v 0.016091 0.746109 -0.073490
v 0.019140 0.741789 -0.073434
v -0.006590 0.739391 -0.068059
v -0.006609 0.734162 -0.067268
v -0.028705 0.745946 -0.075611
v -0.031714 0.741604 -0.075842
v -0.037298 0.761933 -0.091724
v -0.041470 0.759754 -0.094134
v -0.027337 0.777989 -0.106957
v -0.030161 0.777981 -0.111427
v -0.075744 0.781525 -0.128415
v -0.079636 0.779353 -0.133067
v -0.170663 0.790233 -0.122212
v -0.166760 0.786483 -0.126566
v -0.094945 0.763585 -0.110207
v -0.097308 0.762836 -0.116312
v -0.170958 0.811083 -0.140404
v -0.167022 0.806960 -0.144447
v -0.158324 0.825493 -0.155651
v -0.155591 0.819849 -0.157985
v -0.121908 0.757989 -0.110277
v -0.117440 0.759287 -0.105447
v -0.090422 0.812461 -0.163995
v -0.086666 0.816552 -0.161400
v -0.154571 0.829295 -0.159534
v -0.152057 0.823305 -0.161534
v -0.075281 0.804877 -0.150703
v -0.079212 0.800845 -0.153571
v -0.125061 0.757611 -0.109335
v -0.127099 0.758137 -0.102597
v -0.144587 0.764590 -0.104841
v -0.149049 0.766437 -0.112394
v -0.153942 0.768753 -0.106665
v -0.151774 0.767564 -0.112971
v -0.125061 0.828171 -0.171030
v -0.125261 0.834571 -0.169856
v -0.094557 0.825030 -0.167480
v -0.096790 0.819392 -0.168830
vt 1.000000 0.963179
vt 0.992359 0.962645
vt 0.999915 0.963183
vt 0.875000 0.913699
vt 0.958942 0.913699
vt 0.957065 0.918295
vt 0.957265 0.919894
vt 0.961947 0.945505
vt 0.968762 0.951283
vt 0.976509 0.955256
vt 1.000000 1.000000
vt 0.875000 1.000000
vt 0.750000 1.000000
vt 0.750000 0.913699
vt 0.625000 1.000000
vt 0.625000 0.913699
vt 0.625000 0.500000
vt 0.750000 0.500000
vt 0.919706 0.080294
vt 0.749412 0.080295
vt 0.747992 0.250000
vt 0.990000 0.250000
vt 0.749597 0.029101
vt 0.749053 0.065868
vt 0.822866 0.323999
vt 0.747910 0.270204
vt 0.817099 0.337727
vt 0.817107 0.462203
vt 0.815658 0.463632
vt 0.844715 0.530239
vt 0.904108 0.650689
vt 0.815858 0.431217
vt 0.814232 0.406506
vt 0.750011 0.400931
vt 0.759165 0.392115
vt 0.789050 0.379474
vt 0.802240 0.376242
vt 0.823142 0.607477
vt 0.635795 0.047350
vt 0.662126 0.040419
vt 0.650000 0.000000
vt 0.550000 0.000000
vt 0.512593 0.124690
vt 0.564205 0.047350
vt 0.492924 0.221528
vt 0.488668 0.166667
vt 0.400000 0.166667
vt 0.400000 0.239014
vt 0.450000 0.000000
vt 0.487407 0.124690
vt 0.300000 0.166667
vt 0.300000 0.333333
vt 0.343620 0.333333
vt 0.366568 0.293069
vt 0.300000 0.500000
vt 0.300000 0.666667
vt 0.312034 0.666667
vt 0.327980 0.509606
vt 0.328896 0.500000
vt 0.350000 0.000000
vt 0.329960 0.473108
vt 0.332432 0.438684
vt 0.331056 0.393119
vt 0.300000 0.719651
vt 0.200000 0.166667
vt 0.200000 0.333333
vt 0.200000 0.500000
vt 0.200000 0.666667
vt 0.250000 0.000000
vt 0.200000 0.833333
vt 0.235526 0.833333
vt 0.285436 0.758676
vt 0.950571 0.500000
vt 0.951272 0.664046
vt 0.952048 0.776484
vt 0.520556 0.956955
vt 0.602402 0.923058
vt 0.602833 0.922879
vt 0.520094 0.957146
vt 0.519997 0.957187
vt 0.500000 1.000000
vt 0.499868 0.997869
vt 0.992359 0.962645
vt 0.976509 0.955256
vt 0.968762 0.951283
vt 0.961947 0.945505
vt 0.957265 0.919894
vt 0.957065 0.918295
vt 0.958942 0.913699
vt 0.875000 0.913699
vt 0.875000 1.000000
vt 0.750000 0.913699
vt 0.750000 1.000000
vt 0.520850 0.956834
vt 0.602123 0.923173
vt 0.865822 0.061177
vt 0.928385 0.101248
vt 0.876448 0.080294
vt 0.625000 0.841563
vt 0.625000 0.573229
vt 0.625000 0.570975
vt 0.625000 0.843483
vt 0.670712 0.350926
vt 0.669596 0.354772
vt 0.569762 0.778037
vt 0.568423 0.790060
vt 0.606425 0.805870
vt 0.606928 0.804163
vt 0.636986 0.528935
vt 0.650324 0.449262
vt 0.822866 0.323999
vt 0.990000 0.250000
vt 0.817099 0.337727
vt 0.817107 0.462203
vt 0.904108 0.650689
vt 0.844715 0.530239
vt 0.815658 0.463632
vt 0.814232 0.406506
vt 0.815858 0.431217
vt 0.759165 0.392115
vt 0.802240 0.376242
vt 0.789050 0.379474
vt 0.823142 0.607477
vt 0.750000 0.500000
vt 0.635795 0.047350
vt 0.564205 0.047350
vt 0.512593 0.124690
vt 0.492924 0.221528
vt 0.400000 0.239014
vt 0.400000 0.166667
vt 0.488668 0.166667
vt 0.487407 0.124690
vt 0.300000 0.166667
vt 0.366568 0.293069
vt 0.343620 0.333333
vt 0.300000 0.333333
vt 0.300000 0.666667
vt 0.300000 0.500000
vt 0.328896 0.500000
vt 0.327980 0.509606
vt 0.312034 0.666667
vt 0.331056 0.393119
vt 0.332432 0.438684
vt 0.330306 0.467512
vt 0.329960 0.473108
vt 0.300000 0.719651
vt 0.235526 0.833333
vt 0.285436 0.758676
vt 0.952048 0.776484
vt 0.951272 0.664046
vt 0.950571 0.500000
vt 0.957953 0.892496
vt 0.708572 0.175480
vt 0.710495 0.168259
vt 0.785180 0.038787
vt 0.767405 0.033965
vt 0.867104 0.064348
vt 0.876179 0.066876
vt 0.919706 0.080294
vt 0.919706 0.080294
vt 0.249928 0.481490
vt 0.413711 0.413750
vt 0.419706 0.419706
vt 0.250000 0.490000
vt 0.481421 0.249914
vt 0.490000 0.250000
vt 0.413603 0.086344
vt 0.419706 0.080294
vt 0.249996 0.018528
vt 0.250000 0.010000
vt 0.413711 0.413750
vt 0.419706 0.419706
vt 0.481421 0.249914
vt 0.490000 0.250000
vt 0.413603 0.086344
vt 0.419706 0.080294
vt 0.625000 1.000000
vt 0.646572 0.913699
vt 0.625000 0.991422
vt 0.512158 0.973888
vt 0.509008 0.955458
vt 0.625000 0.846471
vt 0.861627 0.062823
vt 0.919706 0.080294
vt 0.707420 0.179802
vt 0.537891 0.816237
vt 0.536912 0.819912
vt 0.535357 0.825750
vt 0.625000 0.567305
vt 0.602675 0.917551
vt 0.623640 0.844498
vt 0.537495 0.822668
vt 0.523094 0.947607
vt 0.627538 0.551092
vt 0.652291 0.400592
vt 0.881656 0.068507
vt 0.916167 0.079198
vt 0.717473 0.144358
vt 0.711892 0.163344
vt 0.720911 0.150500
vt 0.780238 0.054972
vt 0.658462 0.371448
vt 0.712787 0.162747
vt 0.797308 0.042376
vt 0.873051 0.065841
vt 0.625000 0.574376
vt 0.704212 0.191847
vt 0.632454 0.866240
vt 0.617085 0.904115
vt 0.756823 0.031094
vt 0.610700 0.948875
vt 0.661351 0.500000
vt 0.640434 0.542467
vt 0.531237 0.869209
vt 0.638125 0.305087
vt 0.565922 0.434954
vt 0.740456 0.021080
vt 0.751667 0.045880
vt 0.748258 0.033920
vt 0.919706 0.080294
vt 0.875449 0.067006
vt 0.602070 0.923196
vt 0.623147 0.847810
vt 0.746428 0.053808
vt 0.707090 0.181043
vt 0.534215 0.847435
vt 0.520912 0.956808
vt 0.784819 0.039586
vt 0.940148 0.129646
vt 0.500000 0.571429
vt 0.625000 0.571429
vt 0.625000 0.714286
vt 0.500000 0.714286
vt 0.625000 0.857143
vt 0.500000 0.857143
vt 0.625000 1.000000
vt 0.500000 1.000000
vt 0.500000 -0.000000
vt 0.625000 -0.000000
vt 0.625000 0.142857
vt 0.500000 0.142857
vt 0.625000 0.285714
vt 0.500000 0.285714
vt 0.625000 0.428571
vt 0.500000 0.428571
vt 0.750000 0.714286
vt 0.724849 0.571429
vt 0.728679 0.582892
vt 0.750000 0.582914
vt 0.750000 0.857143
vt 0.750000 1.000000
vt 0.716974 0.142857
vt 0.750000 -0.000000
vt 0.750000 0.065951
vt 0.723651 0.111839
vt 0.721451 0.115540
vt 0.711411 0.197281
vt 0.708066 0.256181
vt 0.709003 0.285714
vt 0.705450 0.428571
vt 0.704873 0.433674
vt 0.709988 0.519879
vt 0.250000 0.571429
vt 0.375000 0.571429
vt 0.375000 0.714286
vt 0.250000 0.714286
vt 0.375000 0.857143
vt 0.250000 0.857143
vt 0.375000 1.000000
vt 0.250000 1.000000
vt 0.250000 -0.000000
vt 0.375000 -0.000000
vt 0.375000 0.142857
vt 0.250000 0.142857
vt 0.375000 0.285714
vt 0.250000 0.285714
vt 0.375000 0.428571
vt 0.250000 0.428571
vt 0.300000 0.554524
vt 0.300000 0.666667
vt 0.339162 0.666667
vt 0.329726 0.500000
vt 0.308030 0.500000
vt 0.328560 0.490135
vt 0.309004 0.472661
vt 0.300000 0.833333
vt 0.324225 0.833333
vt 0.333632 0.802987
vt 0.279692 0.666667
vt 0.288615 0.604904
vt 0.200000 0.833333
vt 0.275358 0.678094
vt 0.200000 0.819912
vt 0.200000 0.819912
vt 0.345406 0.833333
vt 0.500000 0.571429
vt 0.500000 0.714286
vt 0.625000 0.714286
vt 0.625000 0.571429
vt 0.500000 0.857143
vt 0.625000 0.857143
vt 0.500000 1.000000
vt 0.625000 1.000000
vt 0.500000 -0.000000
vt 0.500000 0.142857
vt 0.625000 0.142857
vt 0.625000 -0.000000
vt 0.500000 0.285714
vt 0.625000 0.285714
vt 0.500000 0.428571
vt 0.625000 0.428571
vt 0.728679 0.582892
vt 0.724849 0.571429
vt 0.716974 0.142857
vt 0.721451 0.115540
vt 0.723651 0.111839
vt 0.709003 0.285714
vt 0.708066 0.256181
vt 0.711411 0.197281
vt 0.705450 0.428571
vt 0.709988 0.519879
vt 0.704873 0.433674
vt 0.375000 0.714286
vt 0.375000 0.571429
vt 0.375000 0.857143
vt 0.375000 1.000000
vt 0.375000 0.142857
vt 0.375000 -0.000000
vt 0.375000 0.285714
vt 0.375000 0.428571
vt 0.300000 0.554524
vt 0.308030 0.500000
vt 0.329726 0.500000
vt 0.339162 0.666667
vt 0.300000 0.666667
vt 0.309004 0.472661
vt 0.328560 0.490135
vt 0.333632 0.802987
vt 0.324225 0.833333
vt 0.300000 0.833333
vt 0.279692 0.666667
vt 0.288615 0.604904
vt 0.275358 0.678094
vt 0.375000 0.062500
vt 0.500000 0.062500
vt 0.500000 0.125000
vt 0.375000 0.125000
vt 0.562500 0.062500
vt 0.625000 0.062500
vt 0.625000 0.125000
vt 0.562500 0.125000
vt 0.625000 0.250000
vt 0.562500 0.250000
vt 0.500000 0.250000
vt 0.375000 0.250000
vt 0.500000 0.375000
vt 0.375000 0.375000
vt 0.625000 0.375000
vt 0.562500 0.375000
vt 0.625000 0.500000
vt 0.562500 0.500000
vt 0.500000 0.500000
vt 0.375000 0.500000
vt 0.500000 0.625000
vt 0.375000 0.625000
vt 0.625000 0.625000
vt 0.562500 0.625000
vt 0.125000 0.500000
vt 0.250000 0.500000
vt 0.250000 0.625000
vt 0.125000 0.625000
vt 0.750000 0.500000
vt 0.750000 0.625000
vt 0.875000 0.500000
vt 0.875000 0.625000
vt 0.562500 0.687500
vt 0.500000 0.687500
vt 0.750000 0.687500
vt 0.625000 0.687500
vt 0.875000 0.687500
vt 0.250000 0.687500
vt 0.125000 0.687500
vt 0.375000 0.687500
vt 0.125000 0.562500
vt 0.333627 0.562500
vt 0.340651 0.625000
vt 0.125000 0.625000
vt 0.432829 0.790961
vt 0.433034 0.790813
vt 0.458333 0.790813
vt 0.458333 1.000000
vt 0.432829 1.000000
vt 0.541667 0.790813
vt 0.541667 1.000000
vt 0.566971 0.790813
vt 0.567171 0.790957
vt 0.567171 1.000000
vt 0.659355 0.625000
vt 0.875000 0.625000
vt 0.875000 0.750000
vt 0.650768 0.750000
vt 0.394770 0.750000
vt 0.458333 0.750000
vt 0.458333 0.750000
vt 0.404348 0.750000
vt 0.541667 0.625000
vt 0.605312 0.625000
vt 0.605239 0.750000
vt 0.541667 0.750000
vt 0.349236 0.750000
vt 0.125000 0.750000
vt 0.595665 0.750000
vt 0.541667 0.750000
vt 0.649762 0.750000
vt 0.458333 0.625000
vt 0.458333 0.562500
vt 0.541667 0.562500
vt 0.666620 0.562500
vt 0.875000 0.562500
vt 0.605324 0.562500
vt 0.395873 0.562500
vt 0.394698 0.625000
vt 0.875000 0.750000
vt 0.326603 0.500000
vt 0.397048 0.500000
vt 0.350241 0.750000
vt 0.379470 0.750000
vt 0.379117 0.750000
vt 0.600982 0.756991
vt 0.625000 0.774305
vt 0.334039 0.750000
vt 0.125000 0.750000
vt 0.125000 0.750000
vt 0.625000 0.990420
vt 0.673885 0.500000
vt 0.605335 0.500000
vt 0.458333 0.500000
vt 0.541667 0.500000
vt 0.875000 0.500000
vt 0.125000 0.500000
vt 0.500000 0.500000
vt 0.400000 0.500000
vt 0.400000 0.587011
vt 0.500000 0.576194
vt 0.100000 0.500000
vt 0.000000 0.500000
vt 0.323828 0.298983
vt 0.326445 0.287326
vt 0.700000 0.333333
vt 0.600000 0.333333
vt 0.600000 0.500000
vt 0.700000 0.500000
vt 0.700000 0.166667
vt 0.600000 0.166667
vt 0.500000 0.333333
vt 0.500000 0.166667
vt 0.800000 0.631407
vt 0.800000 0.500000
vt 0.700000 0.604981
vt 0.400000 0.333333
vt 0.400000 0.166667
vt 0.398274 0.255420
vt 0.360110 0.222776
vt 0.375451 0.228500
vt 0.383655 0.232378
vt 0.300000 0.333333
vt 0.300000 0.166667
vt 0.351629 0.225019
vt 0.398453 0.279260
vt 0.387319 0.297025
vt 0.384037 0.301627
vt 0.358405 0.310415
vt 0.331600 0.302410
vt 0.324720 0.293359
vt 0.314958 0.279585
vt 0.315458 0.251863
vt 0.332161 0.230198
vt 0.300000 0.500000
vt 0.200000 0.333333
vt 0.200000 0.166667
vt 0.623493 0.467485
vt 0.484760 0.318184
vt 0.900000 0.500000
vt 0.200000 0.500000
vt 0.100000 0.333333
vt 0.100000 0.166667
vt 0.000000 0.166667
vt 0.000000 0.333333
vt 1.000000 0.333333
vt 1.000000 0.166667
vt 0.900000 0.166667
vt 0.900000 0.333333
vt 1.000000 0.500000
vt 0.800000 0.333333
vt 0.800000 0.166667
vt 0.327044 0.287324
vt 0.322368 0.289265
vt 0.600000 0.578893
vt 0.200000 0.612724
vt 0.211237 0.609663
vt 0.300000 0.600253
vt 0.564531 0.573600
vt 0.500000 0.609350
vt 0.561294 0.606941
vt 0.600000 0.612586
vt 0.700000 0.638006
vt 0.800000 0.663747
vt 0.300000 0.632802
vt 0.400000 0.619898
vt 0.200000 0.645831
vt 0.223167 0.640734
vt 0.700000 0.333333
vt 0.700000 0.500000
vt 0.600000 0.500000
vt 0.600000 0.333333
vt 0.700000 0.666667
vt 0.700000 0.833333
vt 0.600000 0.833333
vt 0.600000 0.666667
vt 0.700000 0.166667
vt 0.600000 0.166667
vt 0.500000 0.500000
vt 0.500000 0.333333
vt 0.500000 0.833333
vt 0.500000 0.666667
vt 0.500000 0.166667
vt 0.400000 0.500000
vt 0.400000 0.333333
vt 0.400000 0.833333
vt 0.400000 0.666667
vt 0.400000 0.166667
vt 0.300000 0.833333
vt 0.300000 0.666667
vt 0.300000 0.333333
vt 0.300000 0.166667
vt 0.300000 0.500000
vt 0.200000 0.333333
vt 0.200000 0.166667
vt 0.200000 0.666667
vt 0.200000 0.500000
vt 0.200000 0.833333
vt 0.100000 0.333333
vt 0.100000 0.166667
vt 0.100000 0.666667
vt 0.100000 0.500000
vt 0.100000 0.833333
vt 0.000000 0.333333
vt 0.000000 0.166667
vt 0.000000 0.666667
vt 0.000000 0.500000
vt 0.000000 0.833333
vt 1.000000 0.166667
vt 1.000000 0.333333
vt 0.900000 0.333333
vt 0.900000 0.166667
vt 1.000000 0.500000
vt 1.000000 0.666667
vt 0.900000 0.666667
vt 0.900000 0.500000
vt 1.000000 0.833333
vt 0.900000 0.833333
vt 0.800000 0.666667
vt 0.800000 0.500000
vt 0.800000 0.333333
vt 0.800000 0.833333
vt 0.800000 0.166667
vt 0.598318 0.833333
vt 0.528480 0.833333
vt 0.528480 0.833333
vt 0.598318 0.833333
vt 0.573326 0.833333
vt 0.491490 0.833333
vt 0.408510 0.833333
vt 0.326674 0.833333
vt 0.249334 0.833333
vt 0.187082 0.833333
vt 0.242545 0.833333
vt 0.657455 0.833333
vt 0.712918 0.833333
vt 0.650666 0.833333
vt 0.537026 0.833333
vt 0.479894 0.833333
vt 0.420105 0.833333
vt 0.362974 0.833333
vt 0.316319 0.833333
vt 0.301682 0.833333
vt 0.371520 0.833333
vt 0.583681 0.833333
vt 0.316319 0.833333
vt 0.301682 0.833333
vt 0.479894 0.833333
vt 0.420105 0.833333
vt 0.583681 0.833333
vt 0.371520 0.833333
vt 0.362974 0.833333
vt 0.537026 0.833333
vt 0.528480 0.833333
vt 0.598318 0.833333
vt 0.537026 0.833333
vt 0.479894 0.833333
vt 0.362974 0.833333
vt 0.316319 0.833333
vt 0.371520 0.833333
vt 0.583681 0.833333
vt 0.420105 0.833333
vt 0.301682 0.833333
vt 0.316319 0.833333
vt 0.301682 0.833333
vt 0.380659 0.833333
vt 0.425845 0.833333
vt 0.425845 0.833333
vt 0.380659 0.833333
vt 0.479894 0.833333
vt 0.420105 0.833333
vt 0.598318 0.833333
vt 0.583681 0.833333
vt 0.371520 0.833333
vt 0.362974 0.833333
vt 0.537026 0.833333
vt 0.528480 0.833333
vt 0.519341 0.833334
vt 0.474155 0.833333
vt 0.347438 0.833333
vt 0.344832 0.833333
vt 0.400328 0.833333
vt 0.499672 0.833333
vt 0.555168 0.833333
vt 0.552562 0.833334
vt 0.519341 0.833334
vt 0.552562 0.833334
vt 0.555168 0.833333
vt 0.499672 0.833333
vt 0.400328 0.833333
vt 0.344832 0.833333
vt 0.347438 0.833333
vt 0.474155 0.833333
vt 0.125000 0.500000
vt 0.125000 0.920913
vt 0.000000 0.920913
vt 0.000000 0.500000
vt 0.750000 0.500000
vt 0.750000 0.920913
vt 0.625000 0.920913
vt 0.625000 0.500000
vt 0.500000 0.920913
vt 0.500000 0.500000
vt 0.375000 0.920913
vt 0.375000 0.500000
vt 0.250000 0.920913
vt 0.250000 0.500000
vt 1.000000 0.500000
vt 1.000000 0.920913
vt 0.875000 0.920913
vt 0.875000 0.500000
vt 0.992554 1.000000
vt 0.882446 1.000000
vt 0.867554 1.000000
vt 0.757446 1.000000
vt 0.742554 1.000000
vt 0.632446 1.000000
vt 0.617554 1.000000
vt 0.507446 1.000000
vt 0.492554 1.000000
vt 0.382446 1.000000
vt 0.367554 1.000000
vt 0.257446 1.000000
vt 0.242554 1.000000
vt 0.132446 1.000000
vt 0.117554 1.000000
vt 0.007446 1.000000
vt 0.399487 0.399487
vt 0.250000 0.461406
vt 0.100513 0.399487
vt 0.038594 0.250000
vt 0.100513 0.100513
vt 0.250000 0.038594
vt 0.399487 0.100513
vt 0.461406 0.250000
vt 0.125000 0.500000
vt 0.125000 0.920913
vt 0.000000 0.920913
vt 0.000000 0.500000
vt 0.750000 0.500000
vt 0.750000 0.920913
vt 0.625000 0.920913
vt 0.625000 0.500000
vt 0.500000 0.920913
vt 0.500000 0.500000
vt 0.375000 0.920913
vt 0.375000 0.500000
vt 0.250000 0.920913
vt 0.250000 0.500000
vt 1.000000 0.500000
vt 1.000000 0.920913
vt 0.875000 0.920913
vt 0.875000 0.500000
vt 0.992554 1.000000
vt 0.882446 1.000000
vt 0.867554 1.000000
vt 0.757446 1.000000
vt 0.742554 1.000000
vt 0.632446 1.000000
vt 0.617554 1.000000
vt 0.507446 1.000000
vt 0.492554 1.000000
vt 0.382446 1.000000
vt 0.367554 1.000000
vt 0.257446 1.000000
vt 0.242554 1.000000
vt 0.132446 1.000000
vt 0.117554 1.000000
vt 0.007446 1.000000
vt 0.399487 0.399487
vt 0.250000 0.461406
vt 0.100513 0.399487
vt 0.038594 0.250000
vt 0.100513 0.100513
vt 0.250000 0.038594
vt 0.399487 0.100513
vt 0.461406 0.250000
vn -0.1672 -0.9809 -0.0994
vn 0.4082 0.1068 -0.9066
vn 0.9234 0.2921 -0.2491
vn 0.9234 -0.3221 0.2087
vn 0.8759 -0.4774 0.0694
vn 0.3330 -0.5761 -0.7465
vn 0.1543 -0.4163 -0.8960
vn 0.4001 -0.6833 -0.6107
vn 0.4315 -0.7359 -0.5218
vn 0.9889 0.0892 -0.1190
vn 0.9891 0.0536 -0.1373
vn 0.0450 -0.3025 -0.9521
vn 0.9535 -0.2990 -0.0372
vn -0.0559 0.9866 -0.1532
vn -0.3458 0.8552 -0.3861
vn -0.6373 0.7701 -0.0290
vn -0.2803 0.9584 0.0542
vn -0.5672 0.6668 -0.4834
vn -0.7829 -0.2194 -0.5822
vn -0.1993 0.9651 -0.1698
vn -0.7477 0.2180 -0.6272
vn -0.5672 -0.6668 -0.4834
vn -0.2063 0.6348 -0.7446
vn -0.2608 -0.2149 -0.9412
vn -0.0756 0.9590 -0.2731
vn -0.2608 0.2149 -0.9412
vn -0.2063 -0.6348 -0.7446
vn 0.4584 -0.0329 -0.8881
vn -0.1376 -0.0185 0.9903
vn 0.3720 -0.8022 0.4670
vn 0.1672 -0.9809 -0.0994
vn -0.4082 0.1068 -0.9066
vn -0.9234 0.2921 -0.2491
vn -0.1727 0.0978 0.9801
vn -0.2909 -0.0894 -0.9526
vn -0.9724 0.0049 -0.2332
vn -0.0197 -0.9996 -0.0210
vn -0.3759 -0.6616 -0.6488
vn -0.4315 -0.7359 -0.5218
vn -0.9889 0.0892 -0.1190
vn -0.9891 0.0536 -0.1373
vn -0.0450 -0.3025 -0.9521
vn -0.9542 -0.2968 -0.0386
vn 0.0559 0.9866 -0.1532
vn 0.3458 0.8552 -0.3861
vn 0.6373 0.7701 -0.0290
vn 0.2803 0.9584 0.0542
vn 0.5672 0.6668 -0.4834
vn 0.7829 -0.2194 -0.5822
vn 0.1993 0.9651 -0.1698
vn 0.7473 0.2181 -0.6276
vn 0.5672 -0.6668 -0.4834
vn 0.2063 0.6348 -0.7446
vn 0.2608 -0.2149 -0.9412
vn 0.0756 0.9590 -0.2731
vn 0.2608 0.2149 -0.9412
vn 0.2063 -0.6348 -0.7446
vn -0.4433 -0.0010 -0.8964
vn 0.4135 -0.0490 -0.9092
vn -0.6113 -0.0651 -0.7888
vn -0.2016 0.6958 0.6893
vn -0.0532 0.6163 0.7857
vn -0.0651 0.6317 0.7724
vn -0.0259 0.6607 0.7502
vn 0.2016 0.6958 0.6893
vn 0.0532 0.6163 0.7857
vn 0.0651 0.6317 0.7724
vn 0.0259 0.6607 0.7502
vn -0.9234 -0.3221 0.2087
vn 0.5253 -0.5440 0.6543
vn -0.8322 0.0110 0.5544
vn -0.5438 0.0787 -0.8355
vn -0.8489 0.0715 0.5236
vn 0.9999 0.0103 -0.0042
vn 0.6547 0.0700 0.7526
vn 0.9999 0.0102 -0.0049
vn -0.9729 0.0014 -0.2311
vn 0.0009 -0.0760 -0.9971
vn -0.3300 -0.9235 0.1955
vn -0.7743 -0.3542 0.5245
vn 0.2488 -0.9305 0.2688
vn 0.6244 -0.3762 0.6846
vn -0.3739 -0.8684 -0.3256
vn -0.5811 -0.3721 -0.7238
vn 0.1456 -0.8283 -0.5411
vn 0.2942 -0.3176 -0.9014
vn -0.0434 -0.7159 -0.6969
vn -0.0411 -0.3633 -0.9307
vn -0.3878 -0.9141 -0.1189
vn -0.8951 -0.3754 -0.2406
vn -0.0514 -0.9295 0.3653
vn -0.0976 -0.3640 0.9263
vn 0.3669 -0.9300 -0.0202
vn 0.9261 -0.3772 -0.0120
vn 0.6557 -0.0254 0.7546
vn -0.9004 -0.3008 0.3144
vn 0.4309 0.1265 -0.8935
vn -0.3380 -0.3656 0.8672
vn 0.7488 -0.5916 0.2989
vn -0.9180 -0.3965 0.0076
vn 0.8364 -0.5035 0.2168
vn 0.1089 -0.4681 -0.8769
vn -0.4732 -0.1232 -0.8723
vn -0.8667 -0.1484 0.4763
vn 0.3934 -0.2200 -0.8926
vn 0.5437 -0.2815 0.7906
vn -0.9730 -0.0993 -0.2083
vn -0.2701 -0.1580 0.9498
vn 0.9681 -0.2336 0.0901
vn 0.1069 0.1122 -0.9879
vn -0.0882 -0.3186 -0.9438
vn 0.0530 -0.0305 -0.9981
vn -0.3037 -0.6036 -0.7372
vn 0.8926 0.2740 -0.3581
vn 0.4581 0.8706 -0.1796
vn -0.9282 0.0594 0.3673
vn -0.9225 -0.0911 0.3752
vn -0.9135 -0.1493 0.3784
vn 0.4336 -0.8830 -0.1796
vn 0.9172 -0.1260 -0.3781
vn 0.3887 0.1722 -0.9051
vn 0.1911 0.8811 -0.4327
vn -0.3975 0.1334 0.9079
vn -0.3900 -0.0170 0.9207
vn -0.3778 -0.1475 0.9141
vn 0.1813 -0.8792 -0.4407
vn 0.3772 -0.1471 -0.9144
vn 0.3834 0.2361 0.8929
vn 0.1911 0.8811 0.4327
vn -0.3990 0.1018 -0.9113
vn -0.3877 -0.1157 -0.9145
vn -0.3703 -0.2523 -0.8940
vn 0.1881 -0.8709 0.4540
vn 0.3841 -0.0366 0.9226
vn 0.8766 0.2905 0.3837
vn 0.4467 0.8735 0.1935
vn -0.9151 0.0532 -0.3997
vn -0.9095 -0.1184 -0.3984
vn -0.9048 -0.1720 -0.3894
vn 0.4362 -0.8806 0.1854
vn 0.9126 -0.1015 0.3960
vn -0.7822 -0.2260 -0.5806
vn -0.7773 0.1926 -0.5990
vn -0.5765 -0.6750 -0.4604
vn -0.2607 -0.2150 -0.9412
vn -0.2139 -0.6417 -0.7366
vn 0.0000 -1.0000 0.0000
vn -0.8926 0.2740 -0.3581
vn -0.4581 0.8706 -0.1796
vn 0.9282 0.0594 0.3673
vn 0.9225 -0.0911 0.3752
vn 0.9135 -0.1493 0.3784
vn -0.4336 -0.8830 -0.1796
vn -0.9172 -0.1260 -0.3781
vn -0.3887 0.1722 -0.9051
vn -0.1911 0.8811 -0.4327
vn 0.3975 0.1334 0.9079
vn 0.3900 -0.0170 0.9207
vn 0.3778 -0.1475 0.9141
vn -0.1813 -0.8792 -0.4407
vn -0.3772 -0.1471 -0.9144
vn -0.3834 0.2361 0.8929
vn -0.1911 0.8811 0.4327
vn 0.3990 0.1018 -0.9113
vn 0.3877 -0.1157 -0.9145
vn 0.3703 -0.2523 -0.8940
vn -0.1881 -0.8709 0.4540
vn -0.3841 -0.0366 0.9226
vn -0.8766 0.2905 0.3837
vn -0.4467 0.8735 0.1935
vn 0.9151 0.0532 -0.3997
vn 0.9095 -0.1184 -0.3984
vn 0.9048 -0.1720 -0.3894
vn -0.4362 -0.8806 0.1854
vn -0.9126 -0.1015 0.3960
vn 0.7822 -0.2260 -0.5806
vn 0.7773 0.1926 -0.5990
vn 0.5765 -0.6750 -0.4604
vn 0.2607 -0.2150 -0.9412
vn 0.2139 -0.6417 -0.7366
vn 0.3517 -0.8607 0.3681
vn -0.9886 -0.1351 0.0664
vn -0.9192 0.2995 -0.2555
vn -0.7721 0.3433 -0.5348
vn -0.9908 -0.0558 -0.1230
vn -0.3260 -0.3764 -0.8672
vn -0.2302 0.6917 -0.6845
vn 0.2302 0.6917 -0.6845
vn 0.3260 -0.3764 -0.8672
vn 0.9908 -0.0558 -0.1230
vn 0.7534 0.3527 -0.5550
vn -0.3224 -0.8790 -0.3513
vn 0.3224 -0.8790 -0.3513
vn 0.2235 0.4109 -0.8839
vn -0.2235 0.4109 -0.8839
vn 0.9517 0.1437 -0.2714
vn 0.2818 0.6828 -0.6741
vn -0.2818 0.6828 -0.6741
vn -0.9485 0.1573 -0.2749
vn -0.9857 0.0514 -0.1602
vn 0.9911 0.0525 0.1226
vn 0.4915 0.8209 0.2909
vn -0.4645 0.8530 0.2381
vn -0.3813 -0.8606 0.3376
vn 0.3813 -0.8606 0.3376
vn 0.9761 -0.0855 0.1998
vn 0.9438 0.3281 0.0399
vn 0.0000 0.0016 1.0000
vn -0.0029 -0.9998 -0.0213
vn 0.0000 0.0000 1.0000
vn 0.0000 1.0000 0.0000
vn 0.9890 -0.0000 0.1479
vn 0.9963 0.0000 -0.0858
vn 0.6261 0.6417 0.4431
vn 0.9594 -0.0242 -0.2810
vn 0.0182 0.9998 -0.0061
vn 0.9692 -0.0245 -0.2452
vn 0.9491 -0.0214 -0.3143
vn 0.0000 0.8783 0.4782
vn 0.5227 -0.5915 -0.6139
vn 0.6947 0.7168 -0.0599
vn 0.6263 -0.6415 0.4430
vn 0.6949 -0.7166 -0.0600
vn 0.6993 0.6907 -0.1841
vn 0.6128 -0.0000 0.7903
vn 0.3659 -0.3704 0.8538
vn 0.3658 0.3705 0.8538
vn 0.6125 0.0017 0.7904
vn 0.0001 -0.5081 0.8613
vn 0.0001 0.5081 0.8613
vn 0.6125 -0.0016 0.7904
vn 0.0000 -0.8783 0.4782
vn 0.5838 0.5230 -0.6210
vn 0.6627 -0.7076 -0.2451
vn 0.6606 -0.0482 -0.7492
vn 0.6872 -0.0522 -0.7246
vn 0.0670 0.9956 -0.0652
vn 0.6736 -0.0512 -0.7373
vn -0.0107 -0.9999 -0.0109
vn -0.1174 0.6525 0.7487
vn -0.9690 -0.1602 -0.1880
vn 0.7861 0.2394 -0.5699
vn -0.2994 -0.5413 0.7857
vn -0.2239 -0.0776 0.9715
vn -0.7840 -0.2734 0.5574
vn -0.5862 0.1228 0.8008
vn 0.2994 -0.8616 0.4098
vn -0.9690 0.1602 0.1880
vn -0.7246 0.4470 0.5245
vn 0.1449 0.6517 0.7445
vn -0.5862 0.7712 0.2483
vn 0.1125 0.6517 0.7501
vn -0.7840 0.5937 -0.1815
vn -0.2239 0.9715 0.0776
vn 0.7904 -0.5920 0.1574
vn -0.2994 0.8616 -0.4098
vn 0.2239 0.9715 0.0776
vn 0.2994 0.8616 -0.4098
vn 0.5862 0.7712 0.2483
vn 0.7840 0.5937 -0.1815
vn 0.7246 0.4470 0.5245
vn 0.9690 0.1602 0.1880
vn 0.7840 -0.2734 0.5574
vn 0.5862 0.1228 0.8008
vn 0.2994 -0.5413 0.7857
vn 0.2239 -0.0776 0.9715
vn 0.3036 0.5395 -0.7854
vn -0.0000 0.6486 0.7611
vn -0.2994 -0.8616 0.4098
vn 0.9559 -0.1885 -0.2253
vn -0.2994 0.5413 -0.7857
vn -0.7840 -0.5937 0.1815
vn -0.6161 0.0635 0.7851
vn 0.3531 -0.1589 0.9220
vn -0.6034 0.7855 0.1377
vn -0.7787 0.4411 0.4462
vn -0.1321 -0.1820 0.9744
vn 0.8265 0.3765 0.4185
vn 0.7267 0.0582 0.6845
vn -0.1924 0.9788 -0.0703
vn 0.7398 0.6630 0.1142
vn -0.7840 0.2734 -0.5574
vn 0.3565 0.9341 0.0171
vn 0.1786 0.5413 -0.8216
vn 0.2330 0.9715 0.0432
vn 0.0762 0.0776 -0.9941
vn 0.2348 0.8616 -0.4500
vn 0.6918 0.2734 -0.6683
vn 0.6168 0.7712 0.1579
vn 0.4599 -0.1228 -0.8794
vn 0.7480 0.5937 -0.2966
vn 0.9300 -0.1602 -0.3307
vn 0.7949 0.4470 0.4103
vn 0.6381 -0.4470 -0.6270
vn 0.9862 0.1602 0.0410
vn 0.6993 0.1228 0.7042
vn 0.5425 -0.7712 -0.3331
vn 0.8585 -0.2734 0.4339
vn 0.8023 -0.5937 0.0623
vn 0.2098 -0.9715 -0.1102
vn 0.4135 -0.5413 0.7321
vn 0.3573 -0.8616 0.3604
vn 0.3666 -0.0776 0.9271
vn -0.2330 -0.9715 -0.0432
vn -0.1786 -0.5413 0.8216
vn -0.2348 -0.8616 0.4500
vn -0.0762 -0.0776 0.9941
vn -0.6168 -0.7712 -0.1579
vn -0.6918 -0.2734 0.6683
vn -0.7480 -0.5937 0.2966
vn -0.4599 0.1228 0.8794
vn -0.7949 -0.4470 -0.4103
vn -0.9300 0.1602 0.3307
vn -0.9862 -0.1602 -0.0410
vn -0.6381 0.4470 0.6270
vn -0.8023 0.5937 -0.0623
vn -0.8585 0.2734 -0.4339
vn -0.5425 0.7712 0.3331
vn -0.6993 -0.1228 -0.7042
vn -0.4135 0.5413 -0.7321
vn -0.2098 0.9715 0.1102
vn -0.3666 0.0776 -0.9271
vn -0.3573 0.8616 -0.3604
vn -0.8569 0.4474 -0.2560
vn 0.4890 0.7870 0.3760
vn 0.6189 0.5507 0.5601
vn 0.5492 0.3144 0.7743
vn 0.3067 0.1684 0.9368
vn -0.0161 0.1684 0.9856
vn -0.2958 0.3144 0.9020
vn -0.4257 0.5507 0.7180
vn -0.3560 0.7870 0.5038
vn -0.1135 0.9331 0.3413
vn 0.2093 0.9331 0.2924
vn 0.3905 0.7707 0.5035
vn 0.4850 0.5988 0.6374
vn 0.4343 0.4269 0.7932
vn 0.2579 0.3206 0.9114
vn 0.0231 0.3206 0.9469
vn -0.1805 0.4269 0.8861
vn -0.2749 0.5988 0.7522
vn -0.2243 0.7707 0.5964
vn -0.0478 0.8770 0.4782
vn 0.1870 0.8770 0.4427
vn -0.2133 -0.7239 0.6561
vn 0.9888 -0.0000 -0.1495
vn -0.3978 0.7239 -0.5637
vn -0.7429 -0.4474 0.4979
vn 0.8569 -0.4474 0.2560
vn 0.2133 0.7239 -0.6561
vn -0.9888 0.0000 0.1495
vn 0.3978 -0.7239 0.5637
vn 0.7429 0.4474 -0.4979
vn -0.2062 -0.5962 -0.7759
vn -0.0324 -0.5962 -0.8022
vn -0.0699 -0.7234 -0.6869
vn -0.2205 -0.6448 -0.7319
vn -0.0899 -0.5661 -0.8194
vn -0.0200 -0.6934 -0.7203
vn -0.1938 -0.6934 -0.6940
vn -0.1563 -0.5661 -0.8094
vn -0.0057 -0.6448 -0.7644
vn -0.1363 -0.7234 -0.6768
vn -0.1998 -0.6496 0.7335
vn -0.2434 0.7743 0.5842
vn 0.9953 0.0700 -0.0674
vn -0.3831 0.7897 -0.4792
vn -0.7263 -0.3748 0.5762
vn 0.8642 -0.3748 0.3358
vn 0.2244 0.7897 -0.5710
vn -0.9707 0.0700 0.2298
vn 0.4077 -0.6496 0.6417
vn 0.7509 0.5148 -0.4137
vn -0.8396 0.5148 -0.1733
vn 0.1138 0.6486 0.7526
vn 0.0175 0.2994 0.9540
vn 0.5049 0.5929 0.6274
vn -0.0573 0.8864 0.4594
vn -0.1972 0.4115 0.8898
vn 0.4514 0.4115 0.7918
vn 0.1905 0.8864 0.4220
vn -0.2969 0.5929 0.7486
vn 0.2653 0.2994 0.9165
vn 0.4052 0.7743 0.4861
vn -0.1138 -0.6486 -0.7526
vn -0.2305 0.6720 -0.7038
vn 0.8389 -0.2689 0.4733
vn 0.2305 -0.6720 0.7038
vn -0.5129 -0.6815 0.5221
vn -0.9559 -0.2918 0.0345
vn -0.8389 0.2689 -0.4733
vn 0.5129 0.6814 -0.5221
vn 0.9559 0.2918 -0.0345
vn 0.1720 0.9559 0.2381
vn 0.4445 0.7161 0.5381
vn 0.3726 0.3712 0.8505
vn -0.0018 0.1231 0.9924
vn -0.4592 0.1173 0.8806
vn -0.7317 0.3571 0.5806
vn -0.6597 0.7020 0.2682
vn -0.2854 0.9500 0.1263
vn -0.1821 0.6807 0.7096
vn -0.3541 0.6587 -0.6639
vn 0.9112 -0.2701 0.3112
vn 0.3541 -0.6587 0.6639
vn -0.4104 -0.6615 0.6276
vn -0.9345 -0.2768 0.2238
vn -0.9112 0.2701 -0.3112
vn 0.4104 0.6615 -0.6276
vn 0.9345 0.2768 -0.2238
vn 0.2239 0.9585 0.1764
vn 0.5463 0.7218 0.4248
vn 0.5320 0.3853 0.7540
vn 0.1892 0.1462 0.9710
vn -0.2812 0.1445 0.9487
vn -0.6036 0.3812 0.7002
vn -0.5893 0.7177 0.3711
vn -0.2465 0.9568 0.1541
vn -0.0364 0.6996 0.7136
usemtl White1
s off
f 68/1/1 24/2/1 69/3/1
f 6/4/2 19/5/2 18/6/2 20/7/2 26/8/2 27/9/2 25/10/2 24/2/2 68/1/2 80/11/2 81/12/2
f 6/4/3 81/12/3 82/13/3 7/14/3
f 7/14/4 82/13/4 83/15/4 8/16/4
f 7/14/5 8/16/5 4/17/5 2/18/5
f 4/19/6 43/20/6 47/21/6 2/22/6
f 43/20/7 4/19/7 93/23/7 92/24/7
f 11/25/8 2/22/8 47/21/8
f 42/26/9 10/27/9 11/25/9 47/21/9
f 12/28/10 22/29/10 21/30/10 30/31/10
f 23/32/11 22/29/11 12/28/11 11/25/11 10/27/11 31/33/11
f 10/27/12 42/26/12 73/34/12 28/35/12 32/36/12 33/37/12 31/33/12
f 9/38/13 6/4/13 7/14/13 2/18/13
f 28/39/14 73/40/14 59/41/14
f 59/42/15 32/43/15 28/44/15
f 31/45/16 33/46/16 13/47/16 23/48/16
f 59/49/17 13/47/17 33/46/17 32/50/17
f 17/51/18 16/52/18 21/53/18 22/54/18 23/48/18 13/47/18
f 15/55/19 14/56/19 26/57/19 20/58/19 18/59/19
f 17/51/20 13/47/20 59/60/20
f 16/52/21 15/55/21 18/59/21 19/61/21 29/62/21 30/63/21 21/53/21
f 14/56/22 27/64/22 26/57/22
f 17/51/23 58/65/23 57/66/23 16/52/23
f 14/56/24 15/55/24 56/67/24 55/68/24
f 58/65/25 17/51/25 59/69/25
f 56/67/26 15/55/26 16/52/26 57/66/26
f 54/70/27 24/71/27 25/72/27 27/64/27 14/56/27 55/68/27
f 19/5/28 6/4/28 9/38/28 2/22/28 11/25/28 12/73/28 30/74/28 29/75/28
f 121/76/29 123/77/29 115/78/29 100/79/29
f 94/80/30 8/16/30 83/15/30 39/81/30 95/82/30
f 69/3/31 66/83/31 68/1/31
f 68/1/32 66/83/32 67/84/32 71/85/32 70/86/32 62/87/32 60/88/32 61/89/32 40/90/32 85/91/32 80/11/32
f 40/90/33 41/92/33 86/93/33 85/91/33
f 142/94/34 135/95/34 123/77/34 121/76/34
f 129/96/35 132/97/35 89/98/35
f 134/99/36 131/100/36 126/101/36 127/102/36
f 102/103/37 105/104/37 96/105/37 99/106/37 114/107/37 117/108/37 108/109/37 111/110/37
f 46/111/38 47/21/38 36/112/38
f 42/26/39 47/21/39 46/111/39 45/113/39
f 48/114/40 76/115/40 63/116/40 64/117/40
f 77/118/41 45/113/41 46/111/41 48/114/41 64/117/41 65/119/41
f 74/120/42 73/34/42 42/26/42 45/113/42 77/118/42 79/121/42 78/122/42
f 44/123/43 36/124/43 41/92/43 40/90/43
f 74/125/44 59/41/44 73/40/44
f 59/42/45 74/126/45 78/127/45
f 77/128/46 65/129/46 49/130/46 79/131/46
f 59/49/47 78/132/47 79/131/47 49/130/47
f 53/133/48 49/130/48 65/129/48 64/134/48 63/135/48 52/136/48
f 50/137/49 51/138/49 60/139/49 62/140/49 70/141/49
f 53/133/50 59/60/50 49/130/50
f 60/139/51 51/138/51 52/136/51 63/135/51 76/142/51 75/143/51 72/144/51 61/145/51
f 50/137/52 70/141/52 71/146/52
f 53/133/53 52/136/53 57/66/53 58/65/53
f 50/137/54 55/68/54 56/67/54 51/138/54
f 58/65/55 59/69/55 53/133/55
f 56/67/56 57/66/56 52/136/56 51/138/56
f 66/147/57 54/70/57 55/68/57 50/137/57 71/146/57 67/148/57
f 75/149/58 76/150/58 48/151/58 46/111/58 36/112/58 44/123/58 40/90/58 61/89/58 72/152/58
f 122/153/59 106/154/59 103/155/59 124/156/59
f 125/157/60 112/158/60 109/159/60 126/160/60
f 34/161/61 1/162/61 81/163/61 80/164/61
f 1/162/62 3/165/62 82/166/62 81/163/62
f 3/165/63 5/167/63 83/168/63 82/166/63
f 5/167/64 84/169/64 39/170/64 83/168/64
f 35/171/65 34/161/65 80/164/65 85/172/65
f 37/173/66 35/171/66 85/172/66 86/174/66
f 38/175/67 37/173/67 86/174/67 87/176/67
f 84/169/68 38/175/68 87/176/68 39/170/68
f 87/177/69 86/93/69 41/92/69 91/178/69 90/179/69
f 141/180/70 144/181/70 94/80/70 95/82/70
f 127/102/71 118/182/71 115/78/71 123/77/71
f 130/183/72 125/157/72 126/160/72 131/184/72
f 134/99/73 127/102/73 123/77/73 135/95/73
f 138/185/74 143/186/74 120/187/74 122/153/74
f 120/187/75 143/186/75 142/94/75 121/76/75
f 122/153/76 120/187/76 97/188/76 106/154/76
f 127/102/77 126/101/77 109/189/77 118/182/77
f 125/157/78 124/156/78 103/155/78 112/158/78
f 117/108/79 114/107/79 116/190/79 119/191/79
f 119/191/80 116/190/80 115/78/80 118/182/80
f 99/106/81 96/105/81 98/192/81 101/193/81
f 101/193/82 98/192/82 97/188/82 100/79/82
f 111/110/83 108/109/83 110/194/83 113/195/83
f 113/196/84 110/197/84 109/159/84 112/158/84
f 105/104/85 102/103/85 104/198/85 107/199/85
f 107/200/86 104/201/86 103/155/86 106/154/86
f 102/103/87 111/110/87 113/202/87 104/203/87
f 104/204/88 113/205/88 112/158/88 103/155/88
f 108/109/89 117/108/89 119/191/89 110/206/89
f 110/206/90 119/191/90 118/182/90 109/189/90
f 114/107/91 99/106/91 101/193/91 116/190/91
f 116/190/92 101/193/92 100/79/92 115/78/92
f 96/105/93 105/104/93 107/207/93 98/192/93
f 98/192/94 107/207/94 106/154/94 97/188/94
f 97/188/95 120/187/95 121/76/95 100/79/95
f 133/208/96 136/209/96 90/179/96 91/178/96
f 138/185/97 122/153/97 124/156/97 139/210/97
f 141/180/98 39/81/98 87/177/98 90/179/98 136/211/98
f 39/81/99 141/180/99 95/82/99
f 91/178/100 41/92/100 36/124/100 88/212/100 132/213/100 133/208/100
f 144/214/101 137/215/101 93/216/101 94/80/101
f 137/217/102 140/218/102 92/24/102 93/219/102
f 130/183/103 131/184/103 132/220/103 129/221/103
f 134/99/104 135/95/104 136/222/104 133/223/104
f 138/185/105 139/210/105 140/224/105 137/225/105
f 142/94/106 143/186/106 144/226/106 141/227/106
f 131/100/107 134/99/107 133/208/107 132/213/107
f 135/95/108 142/94/108 141/180/108 136/211/108
f 137/215/109 144/214/109 143/186/109 138/185/109
f 124/156/110 125/157/110 130/183/110 128/228/110 139/210/110
f 89/98/111 43/20/111 92/24/111 140/218/111 129/96/111
f 128/228/112 130/183/112 129/96/112 140/224/112 139/210/112
f 88/229/113 36/112/113 47/21/113 43/20/113 89/98/113 132/97/113
f 175/230/114 182/231/114 183/232/114 176/233/114
f 176/233/115 183/232/115 184/234/115 177/235/115
f 177/235/116 184/234/116 185/236/116 178/237/116
f 178/238/117 185/239/117 186/240/117 179/241/117
f 179/241/118 186/240/118 187/242/118 180/243/118
f 180/243/119 187/242/119 188/244/119 181/245/119
f 181/245/120 188/244/120 182/231/120 175/230/120
f 223/246/121 183/232/121 182/231/121 202/247/121 201/248/121 245/249/121
f 183/232/122 223/246/122 224/250/122 184/234/122
f 184/234/123 224/250/123 225/251/123 185/236/123
f 199/252/124 186/240/124 185/239/124 225/253/124 250/254/124 203/255/124 198/256/124
f 187/242/125 186/240/125 199/252/125 200/257/125 205/258/125 204/259/125
f 206/260/126 188/244/126 187/242/126 204/259/126
f 202/247/127 182/231/127 188/244/127 206/260/127 207/261/127 208/262/127
f 226/263/128 189/264/128 190/265/128 227/266/128
f 227/266/129 190/265/129 191/267/129 228/268/129
f 228/268/130 191/267/130 192/269/130 229/270/130
f 229/271/131 192/272/131 193/273/131 230/274/131
f 230/274/132 193/273/132 194/275/132 231/276/132
f 231/276/133 194/275/133 195/277/133 232/278/133
f 232/278/134 195/277/134 189/264/134 226/263/134
f 189/264/135 175/230/135 176/233/135 190/265/135
f 190/265/136 176/233/136 177/235/136 191/267/136
f 191/267/137 177/235/137 178/237/137 192/269/137
f 192/272/138 178/238/138 179/241/138 193/273/138
f 193/273/139 179/241/139 180/243/139 194/275/139
f 194/275/140 180/243/140 181/245/140 195/277/140
f 195/277/141 181/245/141 175/230/141 189/264/141
f 200/279/142 197/280/142 208/281/142 207/282/142 205/283/142
f 205/283/143 207/282/143 206/284/143 204/285/143
f 208/281/144 197/280/144 196/286/144 201/287/144 202/288/144
f 198/289/145 197/280/145 200/279/145 199/290/145
f 242/291/146 196/286/146 197/280/146 198/289/146 203/292/146 250/293/146 251/294/146
f 201/287/147 196/286/147 242/291/147 245/295/147
f 209/296/148 210/297/148 217/298/148 216/299/148
f 210/297/149 211/300/149 218/301/149 217/298/149
f 211/300/150 212/302/150 219/303/150 218/301/150
f 212/304/151 213/305/151 220/306/151 219/307/151
f 213/305/152 214/308/152 221/309/152 220/306/152
f 214/308/153 215/310/153 222/311/153 221/309/153
f 215/310/154 209/296/154 216/299/154 222/311/154
f 223/246/155 245/249/155 247/312/155 248/313/155 216/299/155 217/298/155
f 217/298/156 218/301/156 224/250/156 223/246/156
f 218/301/157 219/303/157 225/251/157 224/250/157
f 244/314/158 243/315/158 249/316/158 250/254/158 225/253/158 219/307/158 220/306/158
f 221/309/159 252/317/159 253/318/159 246/319/159 244/314/159 220/306/159
f 254/320/160 252/317/160 221/309/160 222/311/160
f 248/313/161 256/321/161 255/322/161 254/320/161 222/311/161 216/299/161
f 226/263/162 227/266/162 234/323/162 233/324/162
f 227/266/163 228/268/163 235/325/163 234/323/163
f 228/268/164 229/270/164 236/326/164 235/325/164
f 229/271/165 230/274/165 237/327/165 236/328/165
f 230/274/166 231/276/166 238/329/166 237/327/166
f 231/276/167 232/278/167 239/330/167 238/329/167
f 232/278/168 226/263/168 233/324/168 239/330/168
f 233/324/169 234/323/169 210/297/169 209/296/169
f 234/323/170 235/325/170 211/300/170 210/297/170
f 235/325/171 236/326/171 212/302/171 211/300/171
f 236/328/172 237/327/172 213/305/172 212/304/172
f 237/327/173 238/329/173 214/308/173 213/305/173
f 238/329/174 239/330/174 215/310/174 214/308/174
f 239/330/175 233/324/175 209/296/175 215/310/175
f 246/331/176 253/332/176 255/333/176 256/334/176 241/335/176
f 253/332/177 252/336/177 254/337/177 255/333/177
f 256/334/178 248/338/178 247/339/178 240/340/178 241/335/178
f 243/341/179 244/342/179 246/331/179 241/335/179
f 242/291/180 251/294/180 250/293/180 249/343/180 243/341/180 241/335/180 240/340/180
f 247/339/147 245/295/147 242/291/147 240/340/147
f 94/80/181 93/216/181 4/17/181 8/16/181
usemtl White2
f 279/344/182 283/345/182 269/346/182 261/347/182
f 288/348/183 280/349/183 262/350/183 276/351/183
f 276/351/184 262/350/184 258/352/184 274/353/184
f 261/347/185 269/346/185 263/354/185 257/355/185
f 257/355/186 263/354/186 270/356/186 264/357/186
f 274/353/187 258/352/187 265/358/187 277/359/187
f 277/359/188 265/358/188 260/360/188 275/361/188
f 264/357/189 270/356/189 266/362/189 259/363/189
f 259/363/190 266/362/190 271/364/190 267/365/190
f 275/361/191 260/360/191 268/366/191 278/367/191
f 257/368/192 264/369/192 272/370/192 261/371/192
f 264/369/193 259/363/193 267/365/193 272/370/193
f 260/360/194 265/372/194 273/373/194 268/366/194
f 265/372/195 258/374/195 262/375/195 273/373/195
f 266/362/196 275/361/196 278/367/196 271/364/196
f 270/356/197 277/359/197 275/361/197 266/362/197
f 263/354/198 274/353/198 277/359/198 270/356/198
f 269/346/199 276/351/199 274/353/199 263/354/199
f 283/345/200 288/348/200 276/351/200 269/346/200
f 271/364/201 278/367/201 287/376/201 284/377/201
f 268/366/202 273/373/202 286/378/202 282/379/202
f 273/373/203 262/375/203 280/380/203 286/378/203
f 261/371/204 272/370/204 285/381/204 279/382/204
f 272/370/205 267/365/205 281/383/205 285/381/205
f 267/365/206 271/364/206 284/377/206 281/383/206
f 278/367/207 268/366/207 282/379/207 287/376/207
f 287/376/208 282/379/208 286/378/208 280/349/208 288/348/208 283/345/208 279/382/208 285/381/208 281/383/208 284/377/208
f 332/384/209 335/385/209 312/386/209 299/387/209
f 327/388/210 329/389/210 321/390/210 297/391/210 316/392/210
f 321/390/210 320/393/210 298/394/210 297/391/210
f 320/393/210 323/395/210 325/396/210 317/397/210 298/394/210
f 314/398/211 300/399/211 290/400/211 305/401/211
f 304/402/212 296/403/212 322/404/212 330/405/212
f 302/406/213 313/407/213 306/408/213 295/409/213
f 299/387/147 312/386/147 303/410/147 289/411/147
f 295/409/212 306/408/212 324/412/212 319/413/212
f 296/403/212 295/409/212 319/413/212 322/404/212
f 324/412/214 306/408/214 305/401/214 326/414/214
f 301/415/213 302/406/213 295/409/213 296/403/213
f 333/416/215 334/417/215 302/406/215 301/415/215
f 337/418/216 331/419/216 300/399/216 314/398/216
f 334/417/217 338/420/217 313/407/217 302/406/217
f 336/421/218 333/416/218 301/415/218 311/422/218
f 305/401/219 290/400/219 318/423/219 326/414/219
f 335/385/220 308/424/220 307/425/220 336/421/220
f 314/398/221 305/401/221 306/408/221 313/407/221
f 304/402/222 330/405/222 328/426/222 303/410/222
f 303/410/223 312/386/223 311/422/223 304/402/223
f 337/418/224 314/398/224 313/407/224 338/420/224
f 311/422/213 301/415/213 296/403/213 304/402/213
f 320/393/225 321/390/225 322/404/225 319/413/225
f 329/427/226 327/428/226 328/426/226 330/405/226
f 325/396/227 323/395/227 324/429/227 326/430/227
f 321/390/228 329/389/228 330/405/228 322/404/228
f 327/431/229 316/432/229 315/433/229 328/426/229
f 317/397/230 325/396/230 326/430/230 318/434/230
f 323/395/231 320/393/231 319/413/231 324/412/231
f 289/411/232 303/410/232 328/426/232 315/433/232
f 309/435/233 337/418/233 338/420/233 310/436/233
f 312/386/234 335/385/234 336/421/234 311/422/234
f 307/425/235 294/437/235 333/416/235 336/421/235
f 293/438/236 310/436/236 338/420/236 334/417/236
f 309/435/237 292/439/237 331/419/237 337/418/237
f 294/437/238 293/438/238 334/417/238 333/416/238
f 291/440/239 308/424/239 335/385/239 332/384/239
usemtl Gray1
f 34/161/240 84/169/240 5/167/240 3/165/240 1/162/240
f 148/441/241 151/442/241 508/443/241 524/444/241
f 160/445/242 163/446/242 510/447/242 530/448/242
f 173/449/243 146/450/243 145/451/243 172/452/243
f 174/453/244 147/454/244 146/450/244 173/449/244
f 148/441/245 145/451/245 146/450/245 149/455/245
f 146/450/246 147/454/246 150/456/246 149/455/246
f 522/457/247 169/458/247 172/452/247 531/459/247
f 151/442/248 148/441/248 149/455/248 152/460/248
f 152/460/249 149/455/249 150/456/249 153/461/249
f 509/462/250 37/173/250 38/175/250 526/463/250 527/464/250 529/465/250
f 155/466/251 152/460/251 153/461/251 156/467/251
f 518/468/252 526/463/252 38/175/252 84/169/252 34/161/252 35/171/252 37/173/252 509/462/252 513/469/252 515/470/252 521/471/252 532/472/252 533/473/252 520/474/252 523/475/252 507/476/252 511/477/252
f 154/478/253 151/442/253 152/460/253 155/466/253
f 158/479/254 155/466/254 156/467/254 159/480/254
f 169/458/255 522/457/255 516/481/255 514/482/255 166/483/255
f 157/484/256 154/478/256 155/466/256 158/479/256
f 161/485/257 158/479/257 159/480/257 162/486/257
f 160/445/258 157/484/258 158/479/258 161/485/258
f 161/485/259 162/486/259 165/487/259 164/488/259
f 160/445/260 161/485/260 164/488/260 163/446/260
f 164/489/261 165/490/261 168/491/261 167/492/261
f 163/493/262 164/489/262 167/492/262 166/483/262
f 166/483/263 167/492/263 170/494/263 169/458/263
f 170/494/264 167/492/264 168/491/264 171/495/264
f 169/458/265 170/494/265 173/449/265 172/452/265
f 170/494/266 171/495/266 174/453/266 173/449/266
f 160/445/267 530/448/267 528/496/267 525/497/267 157/484/267
f 168/491/268 165/490/268 162/486/268 159/480/268 156/467/268 153/461/268 150/456/268 147/454/268 174/453/268 171/495/268
f 531/459/269 172/452/269 145/451/269 534/498/269
f 166/483/270 514/482/270 510/447/270 163/446/270
f 154/478/271 157/484/271 525/499/271 517/500/271 512/501/271
f 145/451/272 148/441/272 524/444/272 519/502/272 534/498/272
f 519/502/273 524/444/273 523/503/273 520/504/273 533/505/273 534/498/273
f 522/457/274 531/459/274 532/506/274 521/507/274
f 508/443/275 512/501/275 511/508/275 507/509/275
f 507/509/276 523/503/276 524/444/276 508/443/276
f 531/459/277 534/498/277 533/505/277 532/506/277
f 510/447/278 514/482/278 513/469/278 509/462/278
f 514/482/279 516/481/279 522/457/279 521/507/279 515/470/279 513/469/279
f 517/500/280 525/499/280 526/510/280 518/511/280 511/508/280 512/501/280
f 509/462/281 529/465/281 530/448/281 510/447/281
f 151/442/282 154/478/282 512/501/282 508/443/282
f 525/497/283 528/496/283 530/448/283 529/465/283 527/464/283 526/463/283
usemtl Gray2
f 387/512/284 386/513/284 341/514/284 342/515/284
f 385/516/285 398/517/285 389/518/285 340/519/285
f 388/520/286 387/512/286 342/515/286 343/521/286
f 386/513/287 385/516/287 340/519/287 341/514/287
f 342/515/288 341/514/288 346/522/288 347/523/288
f 340/519/289 389/518/289 390/524/289 345/525/289
f 343/521/290 342/515/290 347/523/290 348/526/290
f 341/514/291 340/519/291 345/525/291 346/522/291
f 347/523/292 346/522/292 351/527/292 352/528/292
f 345/525/293 390/524/293 391/529/293 350/530/293
f 348/526/294 347/523/294 352/528/294 353/531/294
f 346/522/295 345/525/295 350/530/295 351/527/295
f 350/530/296 391/529/296 392/532/296 355/533/296
f 353/531/297 352/528/297 357/534/297 358/535/297
f 351/527/298 350/530/298 355/533/298 356/536/298
f 352/528/299 351/527/299 356/536/299 357/534/299
f 358/535/300 357/534/300 362/537/300 363/538/300
f 356/536/301 355/533/301 360/539/301 361/540/301
f 357/534/302 356/536/302 361/540/302 362/537/302
f 355/533/303 392/532/303 393/541/303 360/539/303
f 363/538/304 362/537/304 367/542/304 368/543/304
f 361/540/305 360/539/305 365/544/305 366/545/305
f 362/537/306 361/540/306 366/545/306 367/542/306
f 360/539/307 393/541/307 394/546/307 365/544/307
f 368/543/308 367/542/308 372/547/308 373/548/308
f 366/545/309 365/544/309 370/549/309 371/550/309
f 367/542/310 366/545/310 371/550/310 372/547/310
f 365/544/311 394/546/311 395/551/311 370/549/311
f 373/552/312 372/553/312 377/554/312 378/555/312
f 371/556/313 370/557/313 375/558/313 376/559/313
f 372/553/314 371/556/314 376/559/314 377/554/314
f 370/557/315 395/560/315 396/561/315 375/558/315
f 376/559/316 375/558/316 380/562/316 381/563/316
f 377/554/317 376/559/317 381/563/317 382/564/317
f 375/558/318 396/561/318 397/565/318 380/562/318
f 378/555/319 377/554/319 382/564/319 383/566/319
f 382/564/320 381/563/320 386/513/320 387/512/320
f 380/562/321 397/565/321 398/517/321 385/516/321
f 383/566/322 382/564/322 387/512/322 388/520/322
f 381/563/323 380/562/323 385/516/323 386/513/323
f 379/567/324 374/568/324 416/569/324 417/570/324
f 399/571/325 400/572/325 390/524/325 389/518/325
f 400/572/326 401/573/326 391/529/326 390/524/326
f 401/573/327 402/574/327 392/532/327 391/529/327
f 402/574/328 403/575/328 393/541/328 392/532/328
f 403/575/329 404/576/329 394/546/329 393/541/329
f 404/576/330 405/577/330 395/551/330 394/546/330
f 405/577/331 406/578/331 396/561/331 395/551/331
f 406/578/332 407/579/332 397/565/332 396/561/332
f 407/579/333 408/580/333 398/517/333 397/565/333
f 408/580/334 399/571/334 389/518/334 398/517/334
f 339/581/335 344/582/335 400/572/335 399/571/335
f 344/582/336 349/583/336 401/573/336 400/572/336
f 349/583/337 354/584/337 402/574/337 401/573/337
f 354/584/338 359/585/338 403/575/338 402/574/338
f 359/585/339 364/586/339 404/576/339 403/575/339
f 364/586/340 369/587/340 405/577/340 404/576/340
f 369/587/341 374/568/341 406/578/341 405/577/341
f 374/568/342 379/567/342 407/579/342 406/578/342
f 379/567/343 384/588/343 408/580/343 407/579/343
f 384/588/344 339/581/344 399/571/344 408/580/344
f 364/586/345 359/585/345 413/589/345 414/590/345
f 349/583/346 344/582/346 410/591/346 411/592/346
f 384/588/347 379/567/347 417/570/347 418/593/347
f 369/587/348 364/586/348 414/590/348 415/594/348
f 354/584/349 349/583/349 411/592/349 412/595/349
f 339/581/350 384/588/350 418/593/350 409/596/350
f 374/568/351 369/587/351 415/594/351 416/569/351
f 359/585/352 354/584/352 412/595/352 413/589/352
f 344/582/353 339/581/353 409/596/353 410/591/353
f 417/570/354 416/569/354 426/597/354 427/598/354
f 410/591/355 409/596/355 419/599/355 420/600/355
f 413/589/356 412/595/356 422/601/356 423/602/356
f 416/569/357 415/594/357 425/603/357 426/597/357
f 409/596/358 418/593/358 428/604/358 419/599/358
f 412/595/359 411/592/359 421/605/359 422/601/359
f 415/594/360 414/590/360 424/606/360 425/603/360
f 418/593/361 417/570/361 427/598/361 428/604/361
f 411/592/362 410/591/362 420/600/362 421/605/362
f 414/590/363 413/589/363 423/602/363 424/606/363
f 424/606/364 423/602/364 443/607/364 444/608/364
f 432/609/365 431/610/365 451/611/365 452/612/365
f 421/605/366 420/600/366 440/613/366 441/614/366
f 428/604/367 427/598/367 447/615/367 448/616/367
f 425/603/368 424/606/368 444/608/368 445/617/368
f 422/601/369 421/605/369 441/614/369 442/618/369
f 419/599/370 428/604/370 448/616/370 439/619/370
f 426/597/371 425/603/371 445/617/371 446/620/371
f 423/602/372 422/601/372 442/618/372 443/607/372
f 420/600/373 419/599/373 439/619/373 440/613/373
f 427/598/374 426/597/374 446/620/374 447/615/374
f 429/621/375 430/622/375 440/613/375 439/619/375
f 430/622/375 431/610/375 441/614/375 440/613/375
f 431/610/375 432/609/375 442/618/375 441/614/375
f 432/609/375 433/623/375 443/607/375 442/618/375
f 433/623/375 434/624/375 444/608/375 443/607/375
f 434/624/375 435/625/375 445/617/375 444/608/375
f 435/625/375 436/626/375 446/620/375 445/617/375
f 436/626/375 437/627/375 447/615/375 446/620/375
f 437/627/375 438/628/375 448/616/375 447/615/375
f 438/628/375 429/621/375 439/619/375 448/616/375
f 449/629/375 458/630/375 457/631/375 456/632/375 455/633/375 454/634/375 453/635/375 452/612/375 451/611/375 450/636/375
f 429/621/376 438/628/376 458/630/376 449/629/376
f 436/626/377 435/625/377 455/633/377 456/632/377
f 433/623/378 432/609/378 452/612/378 453/635/378
f 430/622/379 429/621/379 449/629/379 450/636/379
f 437/627/380 436/626/380 456/632/380 457/631/380
f 434/624/381 433/623/381 453/635/381 454/634/381
f 431/610/382 430/622/382 450/636/382 451/611/382
f 438/628/383 437/627/383 457/631/383 458/630/383
f 435/625/384 434/624/384 454/634/384 455/633/384
f 388/520/385 343/521/385 348/526/385 353/531/385 358/535/385 363/538/385 368/543/385 373/552/385 378/555/385 383/566/385
f 466/637/386 482/638/386 468/639/386 459/640/386
f 461/641/387 472/642/387 474/643/387 462/644/387
f 462/644/388 474/643/388 476/645/388 463/646/388
f 463/646/389 476/645/389 478/647/389 464/648/389
f 464/648/390 478/647/390 480/649/390 465/650/390
f 465/650/391 480/649/391 482/638/391 466/637/391
f 459/651/392 468/652/392 470/653/392 460/654/392
f 460/654/393 470/653/393 472/642/393 461/641/393
f 470/653/394 468/652/394 467/655/394 469/656/394
f 472/642/395 470/653/395 469/657/395 471/658/395
f 474/643/396 472/642/396 471/659/396 473/660/396
f 476/645/397 474/643/397 473/661/397 475/662/397
f 478/647/398 476/645/398 475/663/398 477/664/398
f 480/649/399 478/647/399 477/665/399 479/666/399
f 482/638/400 480/649/400 479/667/400 481/668/400
f 468/639/401 482/638/401 481/669/401 467/670/401
f 469/671/402 467/672/402 481/673/402 479/674/402 477/675/402 475/676/402 473/677/402 471/678/402
f 490/679/403 506/680/403 492/681/403 483/682/403
f 485/683/404 496/684/404 498/685/404 486/686/404
f 486/686/405 498/685/405 500/687/405 487/688/405
f 487/688/406 500/687/406 502/689/406 488/690/406
f 488/690/407 502/689/407 504/691/407 489/692/407
f 489/692/408 504/691/408 506/680/408 490/679/408
f 483/693/409 492/694/409 494/695/409 484/696/409
f 484/696/410 494/695/410 496/684/410 485/683/410
f 494/695/411 492/694/411 491/697/411 493/698/411
f 496/684/412 494/695/412 493/699/412 495/700/412
f 498/685/413 496/684/413 495/701/413 497/702/413
f 500/687/414 498/685/414 497/703/414 499/704/414
f 502/689/415 500/687/415 499/705/415 501/706/415
f 504/691/416 502/689/416 501/707/416 503/708/416
f 506/680/417 504/691/417 503/709/417 505/710/417
f 492/681/418 506/680/418 505/711/418 491/712/418
f 493/713/419 491/714/419 505/715/419 503/716/419 501/717/419 499/718/419 497/719/419 495/720/419
